<svg width="56" height="57" viewBox="0 0 56 57" fill="none" xmlns="http://www.w3.org/2000/svg">
<path d="M35 21.5002H39.6667V26.1668H35V21.5002ZM39.6667 12.1668H35V16.8335H39.6667V12.1668ZM25.6667 35.5002H30.3333V30.8335H25.6667V35.5002ZM30.3333 12.1668H25.6667V16.8335H30.3333V12.1668ZM25.6667 26.1668H30.3333V21.5002H25.6667V26.1668ZM21 12.1668H16.3333V16.8335H21V12.1668ZM21 21.5002H16.3333V26.1668H21V21.5002ZM33.95 49.5002H30.3333V41.3335H25.6667V49.5002H11.6667V7.50016H44.3333V26.2368C45.99 26.3768 47.5767 26.8902 49 27.6368V2.8335H7V54.1668H37.1233C36.1667 52.8602 35 51.2735 33.95 49.5002ZM16.3333 44.8335H21V40.1668H16.3333V44.8335ZM21 30.8335H16.3333V35.5002H21V30.8335ZM51.3333 39.0002C51.3333 45.0668 43.1667 54.1668 43.1667 54.1668C43.1667 54.1668 35 45.0668 35 39.0002C35 34.5668 38.7333 30.8335 43.1667 30.8335C47.6 30.8335 51.3333 34.5668 51.3333 39.0002ZM45.9667 39.2335C45.9667 37.8335 44.5667 36.4335 43.1667 36.4335C41.7667 36.4335 40.3667 37.6002 40.3667 39.2335C40.3667 40.6335 41.5333 42.0335 43.1667 42.0335C44.8 42.0335 46.2 40.6335 45.9667 39.2335Z" fill="#F5F5F5"/>
</svg>
