<svg width="56" height="57" viewBox="0 0 56 57" fill="none" xmlns="http://www.w3.org/2000/svg">
<path d="M17.9375 4C16.4291 4 14.9824 4.59922 13.9158 5.66583C12.8492 6.73244 12.25 8.17908 12.25 9.6875V47.3125C12.25 48.8209 12.8492 50.2676 13.9158 51.3342C14.9824 52.4008 16.4291 53 17.9375 53H38.0625C39.5709 53 41.0176 52.4008 42.0842 51.3342C43.1508 50.2676 43.75 48.8209 43.75 47.3125V9.6875C43.75 8.17908 43.1508 6.73244 42.0842 5.66583C41.0176 4.59922 39.5709 4 38.0625 4H17.9375ZM15.75 9.6875C15.75 8.48 16.73 7.5 17.9375 7.5H38.0625C39.27 7.5 40.25 8.48 40.25 9.6875V47.3125C40.25 48.52 39.27 49.5 38.0625 49.5H17.9375C16.73 49.5 15.75 48.52 15.75 47.3125V9.6875ZM24.5 42.5C24.0359 42.5 23.5908 42.6844 23.2626 43.0126C22.9344 43.3408 22.75 43.7859 22.75 44.25C22.75 44.7141 22.9344 45.1592 23.2626 45.4874C23.5908 45.8156 24.0359 46 24.5 46H31.5C31.9641 46 32.4093 45.8156 32.7374 45.4874C33.0656 45.1592 33.25 44.7141 33.25 44.25C33.25 43.7859 33.0656 43.3408 32.7374 43.0126C32.4093 42.6844 31.9641 42.5 31.5 42.5H24.5Z" fill="#F5F5F5"/>
</svg>
